<?xml version="1.0" standalone="no"?>
<!DOCTYPE svg PUBLIC "-//W3C//DTD SVG 20010904//EN"
 "http://www.w3.org/TR/2001/REC-SVG-20010904/DTD/svg10.dtd">
<svg version="1.0" xmlns="http://www.w3.org/2000/svg"
 width="640.000000pt" height="640.000000pt" viewBox="0 0 640.000000 640.000000"
 preserveAspectRatio="xMidYMid meet">
<metadata>
Created by potrace 1.16, written by Peter Selinger 2001-2019
</metadata>
<g transform="translate(0.000000,640.000000) scale(0.100000,-0.100000)"
fill="#000000" stroke="none">
<path d="M4598 5101 c-32 -26 -83 -125 -103 -201 -19 -72 -19 -230 0 -305 20
-73 55 -145 107 -214 l40 -53 -403 -404 -404 -404 -1251 0 c-1195 0 -1257 -1
-1366 -19 -329 -57 -650 -235 -866 -480 -41 -47 -137 -180 -213 -294 -138
-207 -139 -208 -139 -265 0 -87 18 -107 201 -229 l162 -108 63 0 c47 0 69 5
91 21 15 11 84 103 152 205 88 130 148 207 205 263 l81 80 3 -387 2 -387 1763
0 1762 0 268 536 268 536 102 -94 c251 -230 317 -288 358 -310 43 -22 51 -23
299 -23 248 0 256 1 300 23 86 45 116 84 221 295 l99 199 0 75 c0 42 -5 94
-12 117 -13 44 -766 1060 -820 1106 l-29 26 40 22 c53 30 124 111 155 176 39
81 49 137 44 243 -3 85 -8 107 -38 171 -38 82 -59 102 -108 102 -30 0 -56 -22
-260 -220 l-227 -219 -216 215 c-206 206 -218 216 -260 221 -35 4 -50 0 -71
-16z m-2967 -2087 c7 -9 34 -60 60 -115 26 -54 50 -99 54 -99 11 0 211 -30
232 -35 14 -3 25 -16 29 -31 6 -23 -5 -37 -84 -117 l-90 -92 20 -122 c30 -178
18 -187 -149 -97 l-103 55 -104 -55 c-166 -89 -178 -81 -148 97 l20 122 -89
90 c-94 96 -109 127 -66 145 12 5 71 16 131 25 61 8 111 16 112 18 1 1 27 53
58 115 48 95 60 112 80 112 13 0 29 -7 37 -16z m1120 0 c7 -9 34 -60 60 -115
26 -54 50 -99 54 -99 11 0 211 -30 232 -35 14 -3 25 -16 29 -31 6 -23 -5 -37
-84 -117 l-90 -92 20 -122 c30 -178 18 -187 -149 -97 l-103 55 -104 -55 c-166
-89 -178 -81 -148 97 l20 122 -89 90 c-94 96 -109 127 -66 145 12 5 71 16 131
25 61 8 111 16 112 18 1 1 27 53 58 115 48 95 60 112 80 112 13 0 29 -7 37
-16z m1120 0 c7 -9 34 -60 60 -115 26 -54 50 -99 54 -99 11 0 211 -30 232 -35
14 -3 25 -16 29 -31 6 -23 -5 -37 -84 -117 l-90 -92 20 -122 c30 -178 18 -187
-149 -97 l-103 55 -104 -55 c-166 -89 -178 -81 -148 97 l20 122 -89 90 c-94
96 -109 127 -66 145 12 5 71 16 131 25 61 8 111 16 112 18 1 1 27 53 58 115
48 95 60 112 80 112 13 0 29 -7 37 -16z"/>
<path d="M960 853 c0 -729 1 -749 20 -781 11 -18 34 -41 52 -52 31 -19 51 -20
408 -20 357 0 377 1 408 20 18 11 41 34 52 52 19 32 20 52 20 461 l0 427 800
0 800 0 0 -427 c0 -409 1 -429 20 -461 11 -18 34 -41 52 -52 31 -19 51 -20
408 -20 357 0 377 1 408 20 18 11 41 34 52 52 19 32 20 52 20 781 l0 747
-1760 0 -1760 0 0 -747z"/>
</g>
</svg>
