<?xml version="1.0" standalone="no"?>
<!DOCTYPE svg PUBLIC "-//W3C//DTD SVG 20010904//EN"
 "http://www.w3.org/TR/2001/REC-SVG-20010904/DTD/svg10.dtd">
<svg version="1.0" xmlns="http://www.w3.org/2000/svg"
 width="640.000000pt" height="640.000000pt" viewBox="0 0 640.000000 640.000000"
 preserveAspectRatio="xMidYMid meet">
<metadata>
Created by potrace 1.16, written by Peter Selinger 2001-2019
</metadata>
<g transform="translate(0.000000,640.000000) scale(0.100000,-0.100000)"
fill="#000000" stroke="none">
<path d="M2355 4473 c-169 -22 -379 -88 -535 -169 -420 -219 -709 -594 -828
-1074 -25 -103 -25 -112 -29 -547 l-4 -443 2721 0 2721 0 -4 443 c-4 435 -4
444 -29 547 -78 315 -219 570 -433 785 -215 214 -467 353 -785 433 l-105 26
-1330 2 c-731 1 -1343 0 -1360 -3z m-13 -1098 c37 -71 68 -133 70 -136 2 -4
68 -16 148 -28 120 -17 148 -24 163 -42 9 -12 17 -26 17 -32 0 -5 -50 -61
-111 -122 l-110 -112 25 -144 c23 -129 24 -145 11 -166 -9 -13 -25 -23 -39
-23 -13 0 -79 29 -147 65 -68 36 -126 65 -129 65 -3 0 -61 -29 -129 -65 -68
-36 -134 -65 -147 -65 -14 0 -30 10 -39 23 -13 21 -12 37 11 167 l26 143 -106
106 c-108 109 -126 142 -93 170 8 6 80 21 160 33 l147 22 56 115 c76 159 79
163 117 159 30 -3 36 -11 99 -133z m1440 0 c37 -71 68 -133 70 -136 2 -4 68
-16 148 -28 120 -17 148 -24 163 -42 9 -12 17 -26 17 -32 0 -5 -50 -61 -111
-122 l-110 -112 25 -144 c23 -129 24 -145 11 -166 -9 -13 -25 -23 -39 -23 -13
0 -79 29 -147 65 -68 36 -126 65 -129 65 -3 0 -61 -29 -129 -65 -68 -36 -134
-65 -147 -65 -14 0 -30 10 -39 23 -13 21 -12 37 11 167 l26 143 -106 106
c-108 109 -126 142 -93 170 8 6 80 21 160 33 l147 22 56 115 c76 159 79 163
117 159 30 -3 36 -11 99 -133z m1440 0 c37 -71 68 -133 70 -136 2 -4 68 -16
148 -28 120 -17 148 -24 163 -42 9 -12 17 -26 17 -32 0 -5 -50 -61 -111 -122
l-110 -112 25 -144 c23 -129 24 -145 11 -166 -9 -13 -25 -23 -39 -23 -13 0
-79 29 -147 65 -68 36 -126 65 -129 65 -3 0 -61 -29 -129 -65 -68 -36 -134
-65 -147 -65 -14 0 -30 10 -39 23 -13 21 -12 37 11 167 l26 143 -106 106
c-108 109 -126 142 -93 170 8 6 80 21 160 33 l147 22 56 115 c76 159 79 163
117 159 30 -3 36 -11 99 -133z"/>
<path d="M958 1343 c-3 -562 -4 -579 -24 -613 -63 -107 -205 -107 -268 0 -20
33 -21 55 -26 405 -6 411 -4 404 -73 445 -29 18 -51 20 -247 20 -240 0 -259
-5 -300 -72 -19 -32 -20 -52 -20 -439 0 -467 3 -491 87 -659 40 -81 62 -109
148 -195 86 -86 114 -108 195 -148 143 -71 232 -90 399 -85 115 4 149 9 216
32 260 89 460 312 531 594 22 89 24 112 24 373 l0 279 160 0 160 0 0 -587 c0
-569 1 -589 20 -621 11 -18 34 -41 52 -52 32 -19 52 -20 568 -20 516 0 536 1
568 20 18 11 41 34 52 52 19 32 20 52 20 461 l0 427 960 0 960 0 0 -427 c0
-409 1 -429 20 -461 11 -18 34 -41 52 -52 32 -19 52 -20 568 -20 516 0 536 1
568 20 18 11 41 34 52 52 19 32 20 53 20 941 l0 907 -2720 0 -2719 0 -3 -577z"/>
</g>
</svg>
